<svg width="53" height="60" viewBox="0 0 53 60" fill="none" xmlns="http://www.w3.org/2000/svg">
<path d="M7.57143 4C3.39531 4 0 7.39531 0 11.5714V49.4286C0 53.6047 3.39531 57 7.57143 57H19.1888V39.7513H12.9424V30.5H19.1888V26.5132C19.1888 16.2089 23.85 11.4295 33.9768 11.4295C35.8933 11.4295 39.2058 11.808 40.5663 12.1866V20.5625C39.8565 20.4915 38.6143 20.4442 37.0645 20.4442C32.0958 20.4442 30.1792 22.3252 30.1792 27.2112V30.5H40.0694L38.3658 39.7513H30.1674V57H45.4286C49.6047 57 53 53.6047 53 49.4286V11.5714C53 7.39531 49.6047 4 45.4286 4H7.57143Z" fill="#2C1708"/>
</svg>
