<svg width="53" height="60" viewBox="0 0 53 60" fill="none" xmlns="http://www.w3.org/2000/svg">
<path d="M10.8958 30.3344C10.8958 33.2801 11.7239 36.1549 13.2855 38.6275L13.6522 39.219L12.0788 44.9685L17.9821 43.4188L18.55 43.7618C20.9397 45.1815 23.6844 45.9386 26.4882 45.9386H26.5C35.0888 45.9386 42.2699 38.9469 42.2699 30.3462C42.2699 26.1819 40.4717 22.2661 37.5259 19.3203C34.5683 16.3627 30.6643 14.742 26.5 14.742C17.8993 14.742 10.9076 21.7337 10.8958 30.3344ZM32.5098 39.2545C31.0192 39.4792 29.8598 39.3609 26.8904 38.0833C22.5368 36.2022 19.5792 31.9906 18.9759 31.1388C18.9286 31.0679 18.8931 31.0324 18.8813 31.0087C18.6446 30.7011 16.9647 28.4652 16.9647 26.1583C16.9647 23.9815 18.0295 22.8576 18.5263 22.3371C18.5618 22.3016 18.5855 22.2779 18.6092 22.2424C19.035 21.7692 19.5437 21.6509 19.8632 21.6509C20.1708 21.6509 20.4902 21.6509 20.7623 21.6627C20.7978 21.6627 20.8214 21.6627 20.8569 21.6627C21.129 21.6627 21.4721 21.6627 21.8152 22.4672C21.9571 22.8103 22.1701 23.3308 22.3949 23.8632C22.7853 24.8096 23.1875 25.7915 23.2585 25.9453C23.3768 26.1819 23.4596 26.454 23.294 26.7616C22.8917 27.5661 22.4777 27.992 22.1938 28.2996C21.827 28.6781 21.6614 28.8556 21.9217 29.317C23.7317 32.4283 25.5417 33.5049 28.2982 34.8891C28.7714 35.1257 29.0435 35.0902 29.3156 34.7708C29.5877 34.4632 30.4868 33.3984 30.7944 32.9371C31.102 32.4638 31.4214 32.5467 31.8473 32.7004C32.2732 32.8542 34.5801 33.99 35.0533 34.2266C35.148 34.2739 35.2308 34.3094 35.3018 34.3449C35.633 34.5105 35.8578 34.617 35.9525 34.7708C36.0589 34.9955 36.0589 35.942 35.6685 37.0304C35.2781 38.1306 33.4089 39.1243 32.5098 39.2545ZM53 11.5714C53 7.39531 49.6047 4 45.4286 4H7.57143C3.39531 4 0 7.39531 0 11.5714V49.4286C0 53.6047 3.39531 57 7.57143 57H45.4286C49.6047 57 53 53.6047 53 49.4286V11.5714ZM17.5208 46.8141L7.57143 49.4286L10.2333 39.704C8.58884 36.8647 7.72522 33.635 7.72522 30.3225C7.73705 19.9828 16.1484 11.5714 26.4882 11.5714C31.5042 11.5714 36.2127 13.5234 39.7618 17.0725C43.2991 20.6217 45.4286 25.3301 45.4286 30.3462C45.4286 40.6859 36.8279 49.0973 26.4882 49.0973C23.3413 49.0973 20.2536 48.3047 17.5208 46.8141Z" fill="#2C1708"/>
</svg>
