<svg width="18" height="22" viewBox="0 0 18 22" fill="none" xmlns="http://www.w3.org/2000/svg">
<g clip-path="url(#clip0_1565_15258)">
<path d="M9 11C10.364 11 11.6721 10.4205 12.6365 9.38909C13.601 8.35764 14.1429 6.95869 14.1429 5.5C14.1429 4.04131 13.601 2.64236 12.6365 1.61091C11.6721 0.579463 10.364 0 9 0C7.63603 0 6.32792 0.579463 5.36345 1.61091C4.39898 2.64236 3.85714 4.04131 3.85714 5.5C3.85714 6.95869 4.39898 8.35764 5.36345 9.38909C6.32792 10.4205 7.63603 11 9 11ZM7.16384 13.0625C3.20625 13.0625 0 16.4914 0 20.7238C0 21.4285 0.534375 22 1.1933 22H16.8067C17.4656 22 18 21.4285 18 20.7238C18 16.4914 14.7938 13.0625 10.8362 13.0625H7.16384Z" fill="white"/>
</g>
<defs>
<clipPath id="clip0_1565_15258">
<rect width="18" height="22" fill="white"/>
</clipPath>
</defs>
</svg>
